<?xml version="1.0" encoding="UTF-8"?>
<svg id="Layer_1" data-name="Layer 1" xmlns="http://www.w3.org/2000/svg" viewBox="0 0 529.41 240.09">
  <defs>
    <style>
      .cls-1 {
        isolation: isolate;
      }

      .cls-2 {
        fill: #fff;
      }
    </style>
  </defs>
  <g>
    <g class="cls-1">
      <g class="cls-1">
        <path class="cls-2" d="M30.84,162.79c0-9.63,6.61-16.78,16.29-16.78,3.51,0,6.66.9,9,2.52,3.33,2.29,5.26,5.89,5.67,9.99h-9.4c-.23-2.52-2.34-4.77-5.4-4.77-4.45,0-6.61,3.78-6.61,9.04s2.52,9.04,6.71,9.04c3.28,0,5.26-2.16,5.58-5.04h9.49c-.27,3.55-1.89,6.71-4.18,8.91-2.75,2.65-6.17,3.82-10.84,3.82-9.81,0-16.29-7.11-16.29-16.74Z"/>
        <path class="cls-2" d="M64.46,146.6h9.4v24.12h13.77v8.05h-23.17v-32.17Z"/>
        <path class="cls-2" d="M100.55,146.6h9.58l11.92,32.17h-9.99l-1.58-4.72h-10.89l-1.57,4.72h-9.36l11.88-32.17ZM101.72,167.57h6.66l-2.02-6.3c-.5-1.57-1.21-4.14-1.21-4.14h-.09s-.67,2.57-1.21,4.14l-2.11,6.3Z"/>
        <path class="cls-2" d="M121.47,168.51h9.63c.31,2.57,2.29,3.78,5.4,3.78,1.85,0,4.09-.72,4.09-2.66s-2.16-2.43-6.12-3.42c-5.4-1.35-11.92-3.19-11.92-10.03,0-7.38,6.03-10.17,13.27-10.17,6.66,0,12.78,2.79,12.91,9.81h-9.31c-.27-1.75-1.53-2.88-4.09-2.88-2.07,0-3.51.95-3.51,2.25,0,1.89,2.74,2.16,7.56,3.33,5.4,1.3,10.8,3.42,10.8,10.26s-6.25,10.75-13.86,10.75c-8.37,0-14.71-3.6-14.85-11.03Z"/>
        <path class="cls-2" d="M151.53,168.51h9.63c.31,2.57,2.29,3.78,5.4,3.78,1.85,0,4.09-.72,4.09-2.66s-2.16-2.43-6.12-3.42c-5.4-1.35-11.92-3.19-11.92-10.03,0-7.38,6.03-10.17,13.27-10.17,6.66,0,12.78,2.79,12.91,9.81h-9.31c-.27-1.75-1.53-2.88-4.09-2.88-2.07,0-3.51.95-3.51,2.25,0,1.89,2.74,2.16,7.56,3.33,5.4,1.3,10.8,3.42,10.8,10.26s-6.25,10.75-13.86,10.75c-8.37,0-14.71-3.6-14.85-11.03Z"/>
        <path class="cls-2" d="M182.81,146.6h9.4v32.17h-9.4v-32.17Z"/>
        <path class="cls-2" d="M194.82,162.79c0-9.63,6.61-16.78,16.29-16.78,3.51,0,6.66.9,9,2.52,3.33,2.29,5.26,5.89,5.67,9.99h-9.4c-.23-2.52-2.34-4.77-5.4-4.77-4.45,0-6.61,3.78-6.61,9.04s2.52,9.04,6.71,9.04c3.28,0,5.26-2.16,5.58-5.04h9.49c-.27,3.55-1.89,6.71-4.18,8.91-2.75,2.65-6.17,3.82-10.84,3.82-9.81,0-16.29-7.11-16.29-16.74Z"/>
        <path class="cls-2" d="M240.58,162.79c0-9.63,6.61-16.78,16.29-16.78,3.51,0,6.66.9,9,2.52,3.33,2.29,5.26,5.89,5.67,9.99h-9.41c-.23-2.52-2.34-4.77-5.4-4.77-4.45,0-6.61,3.78-6.61,9.04s2.52,9.04,6.71,9.04c3.28,0,5.26-2.16,5.58-5.04h9.49c-.27,3.55-1.89,6.71-4.18,8.91-2.75,2.65-6.17,3.82-10.84,3.82-9.81,0-16.29-7.11-16.29-16.74Z"/>
        <path class="cls-2" d="M282.84,146.6h9.58l11.92,32.17h-9.99l-1.58-4.72h-10.89l-1.58,4.72h-9.36l11.88-32.17ZM284.01,167.57h6.66l-2.02-6.3c-.5-1.57-1.21-4.14-1.21-4.14h-.09s-.67,2.57-1.21,4.14l-2.11,6.3Z"/>
        <path class="cls-2" d="M306.1,146.6h15.97c6.57,0,12.15,3.02,12.15,9.59,0,3.69-1.89,6.3-5.26,7.83v.14c2.61.99,3.96,2.79,4.5,5.31.85,3.87.13,8.51,1.3,8.82v.49h-9.27c-.9-.63-.54-4.59-1.21-7.47-.58-2.47-1.67-3.73-4.41-3.73h-4.37v11.2h-9.4v-32.17ZM315.51,160.86h5.04c2.7,0,4.18-1.17,4.18-3.42,0-2.12-1.35-3.46-4.05-3.46h-5.17v6.88Z"/>
        <path class="cls-2" d="M349.35,162.79c0-9.63,6.62-16.78,16.29-16.78,3.51,0,6.66.9,9,2.52,3.33,2.29,5.26,5.89,5.67,9.99h-9.4c-.23-2.52-2.34-4.77-5.4-4.77-4.45,0-6.61,3.78-6.61,9.04s2.52,9.04,6.71,9.04c3.28,0,5.26-2.16,5.58-5.04h9.5c-.27,3.55-1.89,6.71-4.18,8.91-2.75,2.65-6.17,3.82-10.84,3.82-9.81,0-16.29-7.11-16.29-16.74Z"/>
        <path class="cls-2" d="M382.96,146.6h9.4v24.12h13.77v8.05h-23.17v-32.17Z"/>
        <path class="cls-2" d="M407.94,166.49v-19.89h9.41v20.43c0,2.97,1.62,4.81,5.08,4.81,3.2,0,4.82-2.07,4.82-4.99v-20.25h9.4v19.89c0,7.92-4.72,12.87-14.35,12.87s-14.35-4.81-14.35-12.87Z"/>
        <path class="cls-2" d="M440.29,146.6h16.65c3.15,0,5.49.77,7.2,2.07,1.93,1.48,3.06,3.69,3.06,6.35,0,3.06-1.3,4.99-4,6.16v.13c3.51,1.12,5.54,4.1,5.54,7.74s-1.39,6.07-3.69,7.69c-1.94,1.35-4.46,2.03-7.79,2.03h-16.96v-32.17ZM455.37,159.11c1.8,0,3.01-.86,3.01-2.56s-1.26-2.65-3.06-2.65h-5.8v5.22h5.85ZM456.22,171.39c2.03,0,3.42-1.21,3.42-3.15,0-2.07-1.53-3.11-3.46-3.11h-6.66v6.26h6.7Z"/>
        <path class="cls-2" d="M469.9,168.51h9.63c.32,2.57,2.29,3.78,5.4,3.78,1.84,0,4.09-.72,4.09-2.66s-2.16-2.43-6.12-3.42c-5.4-1.35-11.92-3.19-11.92-10.03,0-7.38,6.03-10.17,13.27-10.17,6.66,0,12.78,2.79,12.91,9.81h-9.31c-.27-1.75-1.53-2.88-4.09-2.88-2.07,0-3.51.95-3.51,2.25,0,1.89,2.74,2.16,7.56,3.33,5.4,1.3,10.8,3.42,10.8,10.26s-6.25,10.75-13.86,10.75c-8.37,0-14.71-3.6-14.85-11.03Z"/>
      </g>
    </g>
    <g class="cls-1">
      <g class="cls-1">
        <path class="cls-2" d="M203.34,213.12v-1.65h-.07c-.98,1.32-2.22,2.05-3.97,2.05-3.05,0-4.55-2-4.55-4.92v-8.22h4.72v7.1c0,1.32.57,2.02,1.7,2.02,1.22,0,1.95-.88,1.95-2.25v-6.87h4.72v12.75h-4.5Z"/>
        <path class="cls-2" d="M215.16,208.55l-.98,1.08v3.5h-4.65v-17.87h4.65v8.92l3.07-3.8h5.3l-4.25,4.7,4.75,8.05h-5.35l-2.55-4.57Z"/>
        <path class="cls-2" d="M232.11,202.12h.08c1.02-1.4,2.32-2.15,4.1-2.15,2.95,0,4.47,1.97,4.47,4.9v8.25h-4.72v-7.1c0-1.32-.55-2.2-1.77-2.2s-1.92,1.05-1.92,2.42v6.87h-4.72v-12.75h4.5v1.75Z"/>
        <path class="cls-2" d="M241.84,206.72c0-3.85,2.77-6.77,6.8-6.77,2,0,3.52.65,4.7,1.72,1.55,1.42,2.27,3.7,2.22,6.22h-9.1c.27,1.47,1.07,2.37,2.5,2.37.82,0,1.42-.32,1.77-.95h4.57c-.28,1.15-1.17,2.27-2.42,3.07-1.17.75-2.45,1.07-4.07,1.07-4.17,0-6.97-2.85-6.97-6.75ZM246.46,205.4h4.4c-.2-1.42-1-2.28-2.12-2.28-1.3,0-2.02.88-2.27,2.28Z"/>
        <path class="cls-2" d="M255.81,200.37h1.65v-4.12h4.62v4.12h2.42v2.85h-2.42v5.17c0,1.27.9,1.3,2.37,1.2v3.47c-.72.17-1.47.3-2.32.3-3.1,0-4.67-.88-4.67-3.92v-6.22h-1.65v-2.85Z"/>
        <path class="cls-2" d="M265.21,200.37h4.87l1.25,4.62c.27,1,.6,2.55.6,2.55h.05s.33-1.58.6-2.65l1.1-4.52h4l1.1,4.52c.27,1.1.6,2.7.6,2.7h.05s.38-1.6.62-2.6l1.22-4.62h4.77l-4.05,12.75h-4.55l-1.3-5.3c-.25-.97-.52-2.37-.52-2.37h-.05s-.28,1.4-.53,2.37l-1.3,5.3h-4.47l-4.07-12.75Z"/>
        <path class="cls-2" d="M285.71,206.77c0-3.87,2.75-6.77,7-6.77s6.95,2.9,6.95,6.77-2.7,6.75-6.95,6.75-7-2.88-7-6.75ZM294.86,206.77c0-2.15-.75-3.6-2.2-3.6s-2.15,1.45-2.15,3.6.7,3.6,2.15,3.6,2.2-1.45,2.2-3.6Z"/>
        <path class="cls-2" d="M305.34,202.3h.08c1.02-1.6,2.25-2.2,3.87-2.2.38,0,.62.05.77.12v4.02h-.1c-2.77-.47-4.4.78-4.4,3.65v5.22h-4.72v-12.75h4.5v1.92Z"/>
        <path class="cls-2" d="M316.81,208.55l-.98,1.08v3.5h-4.65v-17.87h4.65v8.92l3.07-3.8h5.3l-4.25,4.7,4.75,8.05h-5.35l-2.55-4.57Z"/>
      </g>
    </g>
  </g>
  <g>
    <path class="cls-2" d="M217.71,107.64h-1.3c-.54.24-1.13.47-1.83.74l-1.16.44-.03-.05c-2.85.96-5.81,1.51-8.84,1.65-.16,0-.32,0-.48.01h-.32c-.23.01-.47.02-.7.02-4.59,0-9.05-.96-13.23-2.81h-.15l-.31-.14c-12.03-5.47-19.79-17.63-19.79-31s7.77-25.54,19.78-31l.31-.14h.15c4.19-1.85,8.64-2.8,13.22-2.81.23,0,.46,0,.68.01h.32c.16.01.32.01.49.02,3.02.14,5.97.69,8.83,1.65l.03-.05,1.19.44c.69.26,1.29.49,1.83.74h1.3c3.29-4.76,7.31-8.99,11.9-12.49-7.85-4.94-16.99-7.65-26.49-7.65h-.38c-.6,0-1.19.02-1.78.06-.35.01-.69.03-1.04.05l-.52.05c-26.26,1.88-46.83,24.33-46.83,51.14s20.57,49.27,46.83,51.14l.53.05c.33.02.68.03,1.02.05.6.02,1.19.05,1.78.05h.37c9.52,0,18.66-2.72,26.49-7.65-4.59-3.5-8.61-7.71-11.9-12.49h.03Z"/>
    <path class="cls-2" d="M276.35,107.64h-1.3c-.54.24-1.14.47-1.83.74l-1.16.44-.03-.05c-2.85.96-5.81,1.51-8.84,1.65-.16,0-.32,0-.48.01h-.31c-.23.01-.47.02-.7.02-4.59,0-9.05-.96-13.23-2.81h-.15l-.31-.14c-12.03-5.47-19.78-17.63-19.78-31s7.77-25.54,19.78-31l.31-.14h.15c4.19-1.85,8.64-2.8,13.22-2.81.23,0,.46,0,.69.01h.32c.16.01.33.01.49.02,3.02.14,5.98.69,8.83,1.65l.06-.09,1.15.48c.69.25,1.28.49,1.83.74h1.3c3.29-4.76,7.31-8.99,11.9-12.49-7.85-4.94-16.99-7.65-26.49-7.65h-.37c-.6,0-1.19.02-1.78.06-.35.01-.69.03-1.04.05l-.52.05c-26.26,1.88-46.83,24.33-46.83,51.14s20.57,49.27,46.83,51.14l.53.05c.33.02.68.03,1.02.05.6.02,1.19.05,1.78.05h.37c9.52,0,18.66-2.72,26.49-7.65-4.59-3.5-8.61-7.71-11.9-12.49h0Z"/>
    <path class="cls-2" d="M360.42,107.64h-26.75c-.54.24-1.14.47-1.83.74l-1.16.44-.03-.05c-2.85.96-5.81,1.51-8.84,1.65-.16,0-.32,0-.48.01h-.32c-.23.01-.47.02-.7.02-4.59,0-9.05-.96-13.23-2.81h-.15l-.31-.14c-12.03-5.47-19.78-17.63-19.78-31s7.77-25.54,19.78-31l.31-.14h.15c4.19-1.85,8.64-2.8,13.22-2.81.23,0,.46,0,.68.01h.32c.16.01.32.01.49.02,3.02.14,5.98.69,8.83,1.65l.06-.09,1.15.48c.69.25,1.28.49,1.83.74h26.75c-9.52-12.66-24.27-20.14-40.04-20.14h-.37c-.6,0-1.19.02-1.78.06-.35.01-.69.03-1.04.05l-.52.05c-26.26,1.88-46.83,24.33-46.83,51.14s20.57,49.27,46.83,51.14l.53.05c.33.02.68.03,1.02.05.6.02,1.19.05,1.78.05h.37c15.78,0,30.53-7.47,40.05-20.14h.01Z"/>
    <g>
      <path class="cls-2" d="M378.21,79.31h-86.41c.29,3.34,1.12,6.55,2.39,9.54h84.01c2.64,0,4.78-2.14,4.78-4.78s-2.14-4.78-4.78-4.78h0Z"/>
      <path class="cls-2" d="M378.21,64.13h-83.92c-1.31,2.99-2.15,6.21-2.46,9.54h86.38c2.64,0,4.78-2.14,4.78-4.78s-2.14-4.78-4.78-4.78h0Z"/>
      <path class="cls-2" d="M378.21,48.95h-69.52c-4.52,2.24-8.33,5.55-11.19,9.54h80.72c2.64,0,4.78-2.14,4.78-4.78s-2.14-4.78-4.78-4.78h-.01Z"/>
      <path class="cls-2" d="M382.98,99.27c0-2.64-2.14-4.78-4.78-4.78h-80.87c2.79,3.96,6.5,7.27,10.91,9.54h69.96c2.64,0,4.78-2.14,4.78-4.78h0Z"/>
    </g>
    <path class="cls-2" d="M231.31,79.31c.29,3.34,1.12,6.55,2.39,9.54h34.13c-.71-3.1-1.16-6.28-1.32-9.54h-35.2Z"/>
    <path class="cls-2" d="M172.67,79.31c.29,3.34,1.12,6.55,2.39,9.54h34.15c-.71-3.1-1.16-6.28-1.32-9.54h-35.22Z"/>
    <path class="cls-2" d="M175.16,64.13c-1.31,2.99-2.15,6.21-2.46,9.54h35.2c.17-3.26.63-6.46,1.36-9.54h-34.1,0Z"/>
    <path class="cls-2" d="M233.78,64.13c-1.31,2.99-2.15,6.21-2.46,9.54h35.2c.17-3.26.63-6.46,1.36-9.54h-34.1Z"/>
    <path class="cls-2" d="M248.18,48.95c-4.52,2.24-8.33,5.55-11.19,9.54h32.52c1.16-3.34,2.66-6.54,4.41-9.54h-25.76.01Z"/>
    <path class="cls-2" d="M189.54,48.95c-4.52,2.24-8.33,5.55-11.19,9.54h32.52c1.16-3.34,2.66-6.54,4.41-9.54h-25.76.01Z"/>
    <path class="cls-2" d="M178.21,94.49c2.79,3.96,6.5,7.27,10.91,9.54h26.06c-1.74-3.02-3.21-6.2-4.36-9.54h-32.6Z"/>
    <path class="cls-2" d="M236.83,94.49c2.79,3.96,6.5,7.27,10.91,9.54h26.06c-1.74-3.02-3.21-6.2-4.36-9.54h-32.6,0Z"/>
    <path class="cls-2" d="M142.6,88.87h7.98c-.71-3.1-1.16-6.28-1.32-9.54h-6.65c-2.64,0-4.78,2.14-4.78,4.78s2.14,4.78,4.78,4.78h0Z"/>
    <path class="cls-2" d="M142.6,73.67h6.67c.17-3.26.63-6.46,1.36-9.54h-8.02c-2.64,0-4.78,2.14-4.78,4.78s2.14,4.78,4.78,4.78h-.01Z"/>
    <path class="cls-2" d="M142.6,58.49h9.66c1.16-3.34,2.66-6.54,4.41-9.54h-14.07c-2.64,0-4.78,2.14-4.78,4.78s2.14,4.78,4.78,4.78h.01Z"/>
    <path class="cls-2" d="M152.17,94.49h-9.58c-2.64,0-4.78,2.14-4.78,4.78s2.14,4.78,4.78,4.78h13.95c-1.74-3.02-3.21-6.2-4.36-9.54h-.01Z"/>
  </g>
</svg>