<svg xmlns="http://www.w3.org/2000/svg" viewBox="0 0 250 70" fill="white">
  <g>
    <path d="M33.2,22c-0.7-2.1-1.7-3.9-3.1-5.5c-1.4-1.6-3.2-2.9-5.2-3.8c-2.1-0.9-4.3-1.4-6.8-1.4c-2.4,0-4.7,0.5-6.8,1.4 c-2.1,0.9-3.9,2.2-5.3,3.8c-1.4,1.6-2.5,3.5-3.3,5.5C1.6,24,1.2,26.5,1.2,29c0,2.5,0.4,4.9,1.3,7c0.9,2.1,2,3.9,3.5,5.5 c1.5,1.6,3.2,2.8,5.2,3.6c2,0.9,4.1,1.3,6.3,1.3c3.3,0,6.2-0.8,8.7-2.3c2.5-1.5,4.5-3.7,6.1-6.6l-4.5-2.7c-1.2,2-2.5,3.5-4.1,4.4 c-1.6,1-3.4,1.5-5.4,1.5c-1.5,0-2.9-0.3-4.3-0.9c-1.4-0.6-2.5-1.4-3.5-2.5c-1-1.1-1.7-2.3-2.3-3.7c-0.5-1.4-0.8-3-0.8-4.6 c0-1.6,0.3-3.1,0.8-4.5c0.5-1.4,1.3-2.6,2.3-3.7c1-1.1,2.1-1.9,3.5-2.5c1.4-0.6,2.8-0.9,4.3-0.9c2.1,0,3.9,0.5,5.4,1.5 c1.5,1,2.7,2.5,3.6,4.4L33.2,22z"/>
    <path d="M58.3,22c-0.7-2.1-1.7-3.9-3.1-5.5c-1.4-1.6-3.2-2.9-5.2-3.8c-2.1-0.9-4.3-1.4-6.8-1.4c-2.4,0-4.7,0.5-6.8,1.4 c-2.1,0.9-3.9,2.2-5.3,3.8c-1.4,1.6-2.5,3.5-3.3,5.5c-0.7,2.1-1.1,4.5-1.1,7c0,2.5,0.4,4.9,1.3,7c0.9,2.1,2,3.9,3.5,5.5 c1.5,1.6,3.2,2.8,5.2,3.6c2,0.9,4.1,1.3,6.3,1.3c3.3,0,6.2-0.8,8.7-2.3c2.5-1.5,4.5-3.7,6.1-6.6l-4.5-2.7c-1.2,2-2.5,3.5-4.1,4.4 c-1.6,1-3.4,1.5-5.4,1.5c-1.5,0-2.9-0.3-4.3-0.9c-1.4-0.6-2.5-1.4-3.5-2.5c-1-1.1-1.7-2.3-2.3-3.7c-0.5-1.4-0.8-3-0.8-4.6 c0-1.6,0.3-3.1,0.8-4.5c0.5-1.4,1.3-2.6,2.3-3.7c1-1.1,2.1-1.9,3.5-2.5c1.4-0.6,2.8-0.9,4.3-0.9c2.1,0,3.9,0.5,5.4,1.5 c1.5,1,2.7,2.5,3.6,4.4L58.3,22z"/>
    <path d="M83.5,22c-0.7-2.1-1.7-3.9-3.1-5.5c-1.4-1.6-3.2-2.9-5.2-3.8c-2.1-0.9-4.3-1.4-6.8-1.4c-2.4,0-4.7,0.5-6.8,1.4 c-2.1,0.9-3.9,2.2-5.3,3.8c-1.4,1.6-2.5,3.5-3.3,5.5c-0.7,2.1-1.1,4.5-1.1,7c0,2.5,0.4,4.9,1.3,7c0.9,2.1,2,3.9,3.5,5.5 c1.5,1.6,3.2,2.8,5.2,3.6c2,0.9,4.1,1.3,6.3,1.3c3.3,0,6.2-0.8,8.7-2.3c2.5-1.5,4.5-3.7,6.1-6.6l-4.5-2.7c-1.2,2-2.5,3.5-4.1,4.4 c-1.6,1-3.4,1.5-5.4,1.5c-1.5,0-2.9-0.3-4.3-0.9c-1.4-0.6-2.5-1.4-3.5-2.5c-1-1.1-1.7-2.3-2.3-3.7c-0.5-1.4-0.8-3-0.8-4.6 c0-1.6,0.3-3.1,0.8-4.5c0.5-1.4,1.3-2.6,2.3-3.7c1-1.1,2.1-1.9,3.5-2.5c1.4-0.6,2.8-0.9,4.3-0.9c2.1,0,3.9,0.5,5.4,1.5 c1.5,1,2.7,2.5,3.6,4.4L83.5,22z"/>
  </g>
  <text x="120" y="35" font-family="Arial, sans-serif" font-size="20" font-weight="bold">
    CLASSIC CAR CLUBS
  </text>
  <text x="120" y="50" font-family="Arial, sans-serif" font-size="10">
    UK NETWORK
  </text>
</svg>
